<mxfile host="app.diagrams.net" modified="2024-01-21T04:38:32.363Z" agent="Mozilla/5.0 (Windows NT 10.0; Win64; x64) AppleWebKit/537.36 (KHTML, like Gecko) Chrome/120.0.0.0 Safari/537.36" etag="7xU9FHnJVfKpH7YXfcJF" version="22.1.21" type="github">
  <diagram id="C5RBs43oDa-KdzZeNtuy" name="Page-1">
    <mxGraphModel dx="578" dy="646" grid="1" gridSize="10" guides="1" tooltips="1" connect="1" arrows="1" fold="1" page="1" pageScale="1" pageWidth="827" pageHeight="1169" math="0" shadow="0">
      <root>
        <mxCell id="WIyWlLk6GJQsqaUBKTNV-0" />
        <mxCell id="WIyWlLk6GJQsqaUBKTNV-1" parent="WIyWlLk6GJQsqaUBKTNV-0" />
        <mxCell id="4KCmmASdSSppZkS9OXg3-3" value="" style="swimlane;fontStyle=0;align=center;verticalAlign=top;childLayout=stackLayout;horizontal=1;startSize=18;horizontalStack=0;resizeParent=1;resizeLast=0;collapsible=1;marginBottom=0;rounded=0;shadow=0;strokeWidth=1;" vertex="1" parent="WIyWlLk6GJQsqaUBKTNV-1">
          <mxGeometry x="30" y="320" width="395" height="50" as="geometry">
            <mxRectangle x="30" y="320" width="170" height="26" as="alternateBounds" />
          </mxGeometry>
        </mxCell>
        <mxCell id="4KCmmASdSSppZkS9OXg3-5" value="egovframework.example.sample.service.EgovSampleServiceImpl.java" style="text;html=1;align=center;verticalAlign=middle;resizable=0;points=[];autosize=1;strokeColor=none;fillColor=none;" vertex="1" parent="4KCmmASdSSppZkS9OXg3-3">
          <mxGeometry y="18" width="395" height="30" as="geometry" />
        </mxCell>
        <mxCell id="4KCmmASdSSppZkS9OXg3-6" value="" style="swimlane;fontStyle=0;align=center;verticalAlign=top;childLayout=stackLayout;horizontal=1;startSize=18;horizontalStack=0;resizeParent=1;resizeLast=0;collapsible=1;marginBottom=0;rounded=0;shadow=0;strokeWidth=1;" vertex="1" parent="WIyWlLk6GJQsqaUBKTNV-1">
          <mxGeometry x="30" y="240" width="395" height="50" as="geometry">
            <mxRectangle x="30" y="320" width="170" height="26" as="alternateBounds" />
          </mxGeometry>
        </mxCell>
        <mxCell id="4KCmmASdSSppZkS9OXg3-7" value="egovframework.example.sample.service.EgovSampleService.java" style="text;html=1;align=center;verticalAlign=middle;resizable=0;points=[];autosize=1;strokeColor=none;fillColor=none;" vertex="1" parent="4KCmmASdSSppZkS9OXg3-6">
          <mxGeometry y="18" width="395" height="30" as="geometry" />
        </mxCell>
        <mxCell id="4KCmmASdSSppZkS9OXg3-8" value="" style="swimlane;fontStyle=0;align=center;verticalAlign=top;childLayout=stackLayout;horizontal=1;startSize=18;horizontalStack=0;resizeParent=1;resizeLast=0;collapsible=1;marginBottom=0;rounded=0;shadow=0;strokeWidth=1;" vertex="1" parent="WIyWlLk6GJQsqaUBKTNV-1">
          <mxGeometry x="30" y="160" width="398" height="50" as="geometry">
            <mxRectangle x="30" y="320" width="170" height="26" as="alternateBounds" />
          </mxGeometry>
        </mxCell>
        <mxCell id="4KCmmASdSSppZkS9OXg3-9" value="egovframework.example.sample.controller.EgovSampleController.java" style="text;html=1;align=center;verticalAlign=middle;resizable=0;points=[];autosize=1;strokeColor=none;fillColor=none;" vertex="1" parent="4KCmmASdSSppZkS9OXg3-8">
          <mxGeometry y="18" width="398" height="30" as="geometry" />
        </mxCell>
        <mxCell id="4KCmmASdSSppZkS9OXg3-10" value="" style="swimlane;fontStyle=0;align=center;verticalAlign=top;childLayout=stackLayout;horizontal=1;startSize=18;horizontalStack=0;resizeParent=1;resizeLast=0;collapsible=1;marginBottom=0;rounded=0;shadow=0;strokeWidth=1;" vertex="1" parent="WIyWlLk6GJQsqaUBKTNV-1">
          <mxGeometry x="30" y="400" width="395" height="50" as="geometry">
            <mxRectangle x="30" y="320" width="170" height="26" as="alternateBounds" />
          </mxGeometry>
        </mxCell>
        <mxCell id="4KCmmASdSSppZkS9OXg3-11" value="egovframework.common.dao.SampleDAO.java" style="text;html=1;align=center;verticalAlign=middle;resizable=0;points=[];autosize=1;strokeColor=none;fillColor=none;" vertex="1" parent="4KCmmASdSSppZkS9OXg3-10">
          <mxGeometry y="18" width="395" height="30" as="geometry" />
        </mxCell>
        <mxCell id="4KCmmASdSSppZkS9OXg3-12" value="" style="swimlane;fontStyle=0;align=center;verticalAlign=top;childLayout=stackLayout;horizontal=1;startSize=18;horizontalStack=0;resizeParent=1;resizeLast=0;collapsible=1;marginBottom=0;rounded=0;shadow=0;strokeWidth=1;" vertex="1" parent="WIyWlLk6GJQsqaUBKTNV-1">
          <mxGeometry x="30" y="480" width="395" height="50" as="geometry">
            <mxRectangle x="30" y="320" width="170" height="26" as="alternateBounds" />
          </mxGeometry>
        </mxCell>
        <mxCell id="4KCmmASdSSppZkS9OXg3-13" value="/sqlmap/example/sample/EgovSample_Sample_SQL.xml" style="text;html=1;align=center;verticalAlign=middle;resizable=0;points=[];autosize=1;strokeColor=none;fillColor=none;" vertex="1" parent="4KCmmASdSSppZkS9OXg3-12">
          <mxGeometry y="18" width="395" height="30" as="geometry" />
        </mxCell>
        <mxCell id="4KCmmASdSSppZkS9OXg3-16" value="" style="endArrow=classic;html=1;rounded=0;exitX=0.496;exitY=1.074;exitDx=0;exitDy=0;exitPerimeter=0;entryX=0.5;entryY=0;entryDx=0;entryDy=0;" edge="1" parent="WIyWlLk6GJQsqaUBKTNV-1" source="4KCmmASdSSppZkS9OXg3-9" target="4KCmmASdSSppZkS9OXg3-6">
          <mxGeometry width="50" height="50" relative="1" as="geometry">
            <mxPoint x="228" y="220" as="sourcePoint" />
            <mxPoint x="228.44" y="240" as="targetPoint" />
            <Array as="points">
              <mxPoint x="228" y="230" />
            </Array>
          </mxGeometry>
        </mxCell>
        <mxCell id="4KCmmASdSSppZkS9OXg3-17" value="" style="endArrow=classic;html=1;rounded=0;exitX=0.496;exitY=1.074;exitDx=0;exitDy=0;exitPerimeter=0;entryX=0.5;entryY=0;entryDx=0;entryDy=0;" edge="1" parent="WIyWlLk6GJQsqaUBKTNV-1">
          <mxGeometry width="50" height="50" relative="1" as="geometry">
            <mxPoint x="227" y="289.78" as="sourcePoint" />
            <mxPoint x="228" y="319.78" as="targetPoint" />
            <Array as="points">
              <mxPoint x="228" y="309.78" />
            </Array>
          </mxGeometry>
        </mxCell>
        <mxCell id="4KCmmASdSSppZkS9OXg3-18" value="" style="endArrow=classic;html=1;rounded=0;exitX=0.496;exitY=1.074;exitDx=0;exitDy=0;exitPerimeter=0;entryX=0.5;entryY=0;entryDx=0;entryDy=0;" edge="1" parent="WIyWlLk6GJQsqaUBKTNV-1">
          <mxGeometry width="50" height="50" relative="1" as="geometry">
            <mxPoint x="227" y="370" as="sourcePoint" />
            <mxPoint x="228" y="400" as="targetPoint" />
            <Array as="points">
              <mxPoint x="228" y="390" />
            </Array>
          </mxGeometry>
        </mxCell>
        <mxCell id="4KCmmASdSSppZkS9OXg3-19" value="" style="endArrow=classic;html=1;rounded=0;exitX=0.496;exitY=1.074;exitDx=0;exitDy=0;exitPerimeter=0;entryX=0.5;entryY=0;entryDx=0;entryDy=0;" edge="1" parent="WIyWlLk6GJQsqaUBKTNV-1">
          <mxGeometry width="50" height="50" relative="1" as="geometry">
            <mxPoint x="227" y="450" as="sourcePoint" />
            <mxPoint x="228" y="480" as="targetPoint" />
            <Array as="points">
              <mxPoint x="228" y="470" />
            </Array>
          </mxGeometry>
        </mxCell>
      </root>
    </mxGraphModel>
  </diagram>
</mxfile>
